<svg xmlns="http://www.w3.org/2000/svg" xmlns:xlink="http://www.w3.org/1999/xlink"
  width="444.6px" height="97.5px" viewBox="-10 -10 228 50" version="1.1">
<![CDATA[
@scale 1.5
clk     _~_~_~_~_~_~_~
@caption_font fill="red" font-family="Times"
@signal_style stroke="red" fill="none"
data  _~~~~______~~_
]]>
<g>
<text x="35" y="8.5" text-anchor="end" font-size="10" fill="black" font-family="Helvetica">clk</text>
<path stroke-linecap="round" stroke-width="0.6" stroke="black" fill="none" d="M42,10H52M52,10L54,0M54,0H64M64,0L66,10M66,10H76M76,10L78,0M78,0H88M88,0L90,10M90,10H100M100,10L102,0M102,0H112M112,0L114,10M114,10H124M124,10L126,0M126,0H136M136,0L138,10M138,10H148M148,10L150,0M150,0H160M160,0L162,10M162,10H172M172,10L174,0M174,0H184M184,0L186,10M186,10H196M196,10L198,0M198,0H208" />

<text x="35" y="28.5" text-anchor="end" font-size="10" fill="red" font-family="Times">data</text>
<path stroke="red" fill="none" d="M42,30H52M52,30L54,20M54,20H64M64,20H66M66,20H76M76,20H78M78,20H88M88,20H90M90,20H100M100,20L102,30M102,30H112M112,30H114M114,30H124M124,30H126M126,30H136M136,30H138M138,30H148M148,30H150M150,30H160M160,30H162M162,30H172M172,30L174,20M174,20H184M184,20H186M186,20H196M196,20L198,30M198,30H208" />

</g>
</svg>
