<svg xmlns="http://www.w3.org/2000/svg" xmlns:xlink="http://www.w3.org/1999/xlink"
  width="390px" height="65px" viewBox="-10 -10 300 50" version="1.1">
<![CDATA[
clk1 _~_~_~_~_~_~_~_~_~_~
@w_hold 13
@grid on
clk2 _~_~_~_~_~_~_~_~
]]>
<g>
<path d="M266,-5V35" stroke-width="0.3" stroke="#ccc" />
<path d="M251,-5V35" stroke-width="0.3" stroke="#ccc" />
<path d="M236,-5V35" stroke-width="0.3" stroke="#ccc" />
<path d="M221,-5V35" stroke-width="0.3" stroke="#ccc" />
<path d="M206,-5V35" stroke-width="0.3" stroke="#ccc" />
<path d="M191,-5V35" stroke-width="0.3" stroke="#ccc" />
<path d="M176,-5V35" stroke-width="0.3" stroke="#ccc" />
<path d="M161,-5V35" stroke-width="0.3" stroke="#ccc" />
<path d="M146,-5V35" stroke-width="0.3" stroke="#ccc" />
<path d="M131,-5V35" stroke-width="0.3" stroke="#ccc" />
<path d="M116,-5V35" stroke-width="0.3" stroke="#ccc" />
<path d="M101,-5V35" stroke-width="0.3" stroke="#ccc" />
<path d="M86,-5V35" stroke-width="0.3" stroke="#ccc" />
<path d="M71,-5V35" stroke-width="0.3" stroke="#ccc" />
<path d="M56,-5V35" stroke-width="0.3" stroke="#ccc" />
<path d="M41,-5V35" stroke-width="0.3" stroke="#ccc" />
<text x="35" y="8.5" text-anchor="end" font-size="10" fill="black" font-family="Helvetica">clk1</text>
<path stroke-linecap="round" stroke-width="0.6" stroke="black" fill="none" d="M42,10H52M52,10L54,0M54,0H64M64,0L66,10M66,10H76M76,10L78,0M78,0H88M88,0L90,10M90,10H100M100,10L102,0M102,0H112M112,0L114,10M114,10H124M124,10L126,0M126,0H136M136,0L138,10M138,10H148M148,10L150,0M150,0H160M160,0L162,10M162,10H172M172,10L174,0M174,0H184M184,0L186,10M186,10H196M196,10L198,0M198,0H208M208,0L210,10M210,10H220M220,10L222,0M222,0H232M232,0L234,10M234,10H244M244,10L246,0M246,0H256M256,0L258,10M258,10H268M268,10L270,0M270,0H280" />

<text x="35" y="28.5" text-anchor="end" font-size="10" fill="black" font-family="Helvetica">clk2</text>
<path stroke-linecap="round" stroke-width="0.6" stroke="black" fill="none" d="M42,30H55M55,30L57,20M57,20H70M70,20L72,30M72,30H85M85,30L87,20M87,20H100M100,20L102,30M102,30H115M115,30L117,20M117,20H130M130,20L132,30M132,30H145M145,30L147,20M147,20H160M160,20L162,30M162,30H175M175,30L177,20M177,20H190M190,20L192,30M192,30H205M205,30L207,20M207,20H220M220,20L222,30M222,30H235M235,30L237,20M237,20H250M250,20L252,30M252,30H265M265,30L267,20M267,20H280" />

</g>
</svg>
