<svg xmlns="http://www.w3.org/2000/svg" xmlns:xlink="http://www.w3.org/1999/xlink"
  width="421.2px" height="72.8px" viewBox="-10 -10 324 56" version="1.1">
<![CDATA[
@h_line 10
clock _~_~_~_~_~_~_~_~_~_~_~
@h_line 16
clock _~_~_~_~_~_~_~_~_~_~_~
]]>
<g>
<text x="35" y="8.5" text-anchor="end" font-size="10" fill="black" font-family="Helvetica">clock</text>
<path stroke-linecap="round" stroke-width="0.6" stroke="black" fill="none" d="M42,10H52M52,10L54,0M54,0H64M64,0L66,10M66,10H76M76,10L78,0M78,0H88M88,0L90,10M90,10H100M100,10L102,0M102,0H112M112,0L114,10M114,10H124M124,10L126,0M126,0H136M136,0L138,10M138,10H148M148,10L150,0M150,0H160M160,0L162,10M162,10H172M172,10L174,0M174,0H184M184,0L186,10M186,10H196M196,10L198,0M198,0H208M208,0L210,10M210,10H220M220,10L222,0M222,0H232M232,0L234,10M234,10H244M244,10L246,0M246,0H256M256,0L258,10M258,10H268M268,10L270,0M270,0H280M280,0L282,10M282,10H292M292,10L294,0M294,0H304" />

<text x="35" y="34.5" text-anchor="end" font-size="16" fill="black" font-family="Helvetica">clock</text>
<path stroke-linecap="round" stroke-width="0.6" stroke="black" fill="none" d="M42,36H52M52,36L54,20M54,20H64M64,20L66,36M66,36H76M76,36L78,20M78,20H88M88,20L90,36M90,36H100M100,36L102,20M102,20H112M112,20L114,36M114,36H124M124,36L126,20M126,20H136M136,20L138,36M138,36H148M148,36L150,20M150,20H160M160,20L162,36M162,36H172M172,36L174,20M174,20H184M184,20L186,36M186,36H196M196,36L198,20M198,20H208M208,20L210,36M210,36H220M220,36L222,20M222,20H232M232,20L234,36M234,36H244M244,36L246,20M246,20H256M256,20L258,36M258,36H268M268,36L270,20M270,20H280M280,20L282,36M282,36H292M292,36L294,20M294,20H304" />

</g>
</svg>
