<svg xmlns="http://www.w3.org/2000/svg" xmlns:xlink="http://www.w3.org/1999/xlink"
  width="421.2px" height="143px" viewBox="-10 -10 324 110" version="1.1">
<![CDATA[
clock _~_~_~_~_~_~_~_~_~_~_~
data1 _~~~~__~~~~______~~___
@h_space 20
data2 _~~~~__~~~~______~~___
data3 _~~~~__~~~~______~~___
]]>
<g>
<text x="35" y="8.5" text-anchor="end" font-size="10" fill="black" font-family="Helvetica">clock</text>
<path stroke-linecap="round" stroke-width="0.6" stroke="black" fill="none" d="M42,10H52M52,10L54,0M54,0H64M64,0L66,10M66,10H76M76,10L78,0M78,0H88M88,0L90,10M90,10H100M100,10L102,0M102,0H112M112,0L114,10M114,10H124M124,10L126,0M126,0H136M136,0L138,10M138,10H148M148,10L150,0M150,0H160M160,0L162,10M162,10H172M172,10L174,0M174,0H184M184,0L186,10M186,10H196M196,10L198,0M198,0H208M208,0L210,10M210,10H220M220,10L222,0M222,0H232M232,0L234,10M234,10H244M244,10L246,0M246,0H256M256,0L258,10M258,10H268M268,10L270,0M270,0H280M280,0L282,10M282,10H292M292,10L294,0M294,0H304" />

<text x="35" y="28.5" text-anchor="end" font-size="10" fill="black" font-family="Helvetica">data1</text>
<path stroke-linecap="round" stroke-width="0.6" stroke="black" fill="none" d="M42,30H52M52,30L54,20M54,20H64M64,20H66M66,20H76M76,20H78M78,20H88M88,20H90M90,20H100M100,20L102,30M102,30H112M112,30H114M114,30H124M124,30L126,20M126,20H136M136,20H138M138,20H148M148,20H150M150,20H160M160,20H162M162,20H172M172,20L174,30M174,30H184M184,30H186M186,30H196M196,30H198M198,30H208M208,30H210M210,30H220M220,30H222M222,30H232M232,30H234M234,30H244M244,30L246,20M246,20H256M256,20H258M258,20H268M268,20L270,30M270,30H280M280,30H282M282,30H292M292,30H294M294,30H304" />

<text x="35" y="58.5" text-anchor="end" font-size="10" fill="black" font-family="Helvetica">data2</text>
<path stroke-linecap="round" stroke-width="0.6" stroke="black" fill="none" d="M42,60H52M52,60L54,50M54,50H64M64,50H66M66,50H76M76,50H78M78,50H88M88,50H90M90,50H100M100,50L102,60M102,60H112M112,60H114M114,60H124M124,60L126,50M126,50H136M136,50H138M138,50H148M148,50H150M150,50H160M160,50H162M162,50H172M172,50L174,60M174,60H184M184,60H186M186,60H196M196,60H198M198,60H208M208,60H210M210,60H220M220,60H222M222,60H232M232,60H234M234,60H244M244,60L246,50M246,50H256M256,50H258M258,50H268M268,50L270,60M270,60H280M280,60H282M282,60H292M292,60H294M294,60H304" />

<text x="35" y="88.5" text-anchor="end" font-size="10" fill="black" font-family="Helvetica">data3</text>
<path stroke-linecap="round" stroke-width="0.6" stroke="black" fill="none" d="M42,90H52M52,90L54,80M54,80H64M64,80H66M66,80H76M76,80H78M78,80H88M88,80H90M90,80H100M100,80L102,90M102,90H112M112,90H114M114,90H124M124,90L126,80M126,80H136M136,80H138M138,80H148M148,80H150M150,80H160M160,80H162M162,80H172M172,80L174,90M174,90H184M184,90H186M186,90H196M196,90H198M198,90H208M208,90H210M210,90H220M220,90H222M222,90H232M232,90H234M234,90H244M244,90L246,80M246,80H256M256,80H258M258,80H268M268,80L270,90M270,90H280M280,90H282M282,90H292M292,90H294M294,90H304" />

</g>
</svg>
