<svg xmlns="http://www.w3.org/2000/svg" xmlns:xlink="http://www.w3.org/1999/xlink"
  width="421.2px" height="65px" viewBox="-10 -10 324 50" version="1.1">
<![CDATA[
data1  _~~~~__[~~~~]______~~___
@highlight_style stroke="green" fill="#8f8" stroke-width="1"
data2  _~~~~__~~~~______[~~]___
]]>
<g>
<path d="M245,-5V35H269V-5Z" stroke="green" fill="#8f8" stroke-width="1" />
<path d="M125,-5V35H173V-5Z" stroke="none" fill="#ff8" />
<text x="35" y="8.5" text-anchor="end" font-size="10" fill="black" font-family="Helvetica">data1</text>
<path stroke-linecap="round" stroke-width="0.6" stroke="black" fill="none" d="M42,10H52M52,10L54,0M54,0H64M64,0H66M66,0H76M76,0H78M78,0H88M88,0H90M90,0H100M100,0L102,10M102,10H112M112,10H114M114,10H124M124,10L126,0M126,0H136M136,0H138M138,0H148M148,0H150M150,0H160M160,0H162M162,0H172M172,0L174,10M174,10H184M184,10H186M186,10H196M196,10H198M198,10H208M208,10H210M210,10H220M220,10H222M222,10H232M232,10H234M234,10H244M244,10L246,0M246,0H256M256,0H258M258,0H268M268,0L270,10M270,10H280M280,10H282M282,10H292M292,10H294M294,10H304" />

<text x="35" y="28.5" text-anchor="end" font-size="10" fill="black" font-family="Helvetica">data2</text>
<path stroke-linecap="round" stroke-width="0.6" stroke="black" fill="none" d="M42,30H52M52,30L54,20M54,20H64M64,20H66M66,20H76M76,20H78M78,20H88M88,20H90M90,20H100M100,20L102,30M102,30H112M112,30H114M114,30H124M124,30L126,20M126,20H136M136,20H138M138,20H148M148,20H150M150,20H160M160,20H162M162,20H172M172,20L174,30M174,30H184M184,30H186M186,30H196M196,30H198M198,30H208M208,30H210M210,30H220M220,30H222M222,30H232M232,30H234M234,30H244M244,30L246,20M246,20H256M256,20H258M258,20H268M268,20L270,30M270,30H280M280,30H282M282,30H292M292,30H294M294,30H304" />

</g>
</svg>
