<svg xmlns="http://www.w3.org/2000/svg" xmlns:xlink="http://www.w3.org/1999/xlink"
  width="421.2px" height="91px" viewBox="-10 -10 324 70" version="1.1">
<![CDATA[
clk     _~_~_~_~_~_~_~_~_~_~_~
data1 ====?=*========*=?======
@notcare_style stroke="none" fill="#8f8"
data1 ====?=*========*=?======
]]>
<g>
<text x="35" y="8.5" text-anchor="end" font-size="10" fill="black" font-family="Helvetica">clk</text>
<path stroke-linecap="round" stroke-width="0.6" stroke="black" fill="none" d="M42,10H52M52,10L54,0M54,0H64M64,0L66,10M66,10H76M76,10L78,0M78,0H88M88,0L90,10M90,10H100M100,10L102,0M102,0H112M112,0L114,10M114,10H124M124,10L126,0M126,0H136M136,0L138,10M138,10H148M148,10L150,0M150,0H160M160,0L162,10M162,10H172M172,10L174,0M174,0H184M184,0L186,10M186,10H196M196,10L198,0M198,0H208M208,0L210,10M210,10H220M220,10L222,0M222,0H232M232,0L234,10M234,10H244M244,10L246,0M246,0H256M256,0L258,10M258,10H268M268,10L270,0M270,0H280M280,0L282,10M282,10H292M292,10L294,0M294,0H304" />

<text x="35" y="28.5" text-anchor="end" font-size="10" fill="black" font-family="Helvetica">data1</text>

<path stroke="none" d="M42,20H100L101,25L100,30H42Z" fill="#ccc"/><text x="71" y="28.5" text-anchor="middle" font-size="10" fill="black" font-family="Helvetica">?</text>

<path stroke="none" d="M210,20H304L304,30H210L209,25Z" fill="#ccc"/><text x="257" y="28.5" text-anchor="middle" font-size="10" fill="black" font-family="Helvetica">?</text>
<path stroke-linecap="round" stroke-width="0.6" stroke="black" fill="none" d="M42,30H52M42,20H52M52,20H54M52,30H54M54,30H64M54,20H64M64,20H66M64,30H66M66,30H76M66,20H76M76,20H78M76,30H78M78,30H88M78,20H88M88,20H90M88,30H90M90,30H100M90,20H100M100,20H102M100,30H102M100,20L102,30M100,30L102,20M102,30H112M102,20H112M112,20H114M112,30H114M114,30H124M114,20H124M124,20H126M124,30H126M126,30H136M126,20H136M136,20H138M136,30H138M138,30H148M138,20H148M148,20H150M148,30H150M150,30H160M150,20H160M160,20H162M160,30H162M162,30H172M162,20H172M172,20H174M172,30H174M174,30H184M174,20H184M184,20H186M184,30H186M186,30H196M186,20H196M196,20H198M196,30H198M198,30H208M198,20H208M208,20H210M208,30H210M208,20L210,30M208,30L210,20M210,30H220M210,20H220M220,20H222M220,30H222M222,30H232M222,20H232M232,20H234M232,30H234M234,30H244M234,20H244M244,20H246M244,30H246M246,30H256M246,20H256M256,20H258M256,30H258M258,30H268M258,20H268M268,20H270M268,30H270M270,30H280M270,20H280M280,20H282M280,30H282M282,30H292M282,20H292M292,20H294M292,30H294M294,30H304M294,20H304" />

<text x="35" y="48.5" text-anchor="end" font-size="10" fill="black" font-family="Helvetica">data1</text>

<path stroke="none" d="M42,40H100L101,45L100,50H42Z" stroke="none" fill="#8f8"/><text x="71" y="48.5" text-anchor="middle" font-size="10" fill="black" font-family="Helvetica">?</text>

<path stroke="none" d="M210,40H304L304,50H210L209,45Z" stroke="none" fill="#8f8"/><text x="257" y="48.5" text-anchor="middle" font-size="10" fill="black" font-family="Helvetica">?</text>
<path stroke-linecap="round" stroke-width="0.6" stroke="black" fill="none" d="M42,50H52M42,40H52M52,40H54M52,50H54M54,50H64M54,40H64M64,40H66M64,50H66M66,50H76M66,40H76M76,40H78M76,50H78M78,50H88M78,40H88M88,40H90M88,50H90M90,50H100M90,40H100M100,40H102M100,50H102M100,40L102,50M100,50L102,40M102,50H112M102,40H112M112,40H114M112,50H114M114,50H124M114,40H124M124,40H126M124,50H126M126,50H136M126,40H136M136,40H138M136,50H138M138,50H148M138,40H148M148,40H150M148,50H150M150,50H160M150,40H160M160,40H162M160,50H162M162,50H172M162,40H172M172,40H174M172,50H174M174,50H184M174,40H184M184,40H186M184,50H186M186,50H196M186,40H196M196,40H198M196,50H198M198,50H208M198,40H208M208,40H210M208,50H210M208,40L210,50M208,50L210,40M210,50H220M210,40H220M220,40H222M220,50H222M222,50H232M222,40H232M232,40H234M232,50H234M234,50H244M234,40H244M244,40H246M244,50H246M246,50H256M246,40H256M256,40H258M256,50H258M258,50H268M258,40H268M268,40H270M268,50H270M270,50H280M270,40H280M280,40H282M280,50H282M282,50H292M282,40H292M292,40H294M292,50H294M294,50H304M294,40H304" />

</g>
</svg>
