<svg xmlns="http://www.w3.org/2000/svg" xmlns:xlink="http://www.w3.org/1999/xlink"
  width="499.20000000000005px" height="39px" viewBox="-10 -10 384 30" version="1.1">
<![CDATA[
@w_caption 100
long_signal_name _~~~~__~~~~______~~___
]]>
<g>
<text x="95" y="8.5" text-anchor="end" font-size="10" fill="black" font-family="Helvetica">long_signal_name</text>
<path stroke-linecap="round" stroke-width="0.6" stroke="black" fill="none" d="M102,10H112M112,10L114,0M114,0H124M124,0H126M126,0H136M136,0H138M138,0H148M148,0H150M150,0H160M160,0L162,10M162,10H172M172,10H174M174,10H184M184,10L186,0M186,0H196M196,0H198M198,0H208M208,0H210M210,0H220M220,0H222M222,0H232M232,0L234,10M234,10H244M244,10H246M246,10H256M256,10H258M258,10H268M268,10H270M270,10H280M280,10H282M282,10H292M292,10H294M294,10H304M304,10L306,0M306,0H316M316,0H318M318,0H328M328,0L330,10M330,10H340M340,10H342M342,10H352M352,10H354M354,10H364" />

</g>
</svg>
