<svg xmlns="http://www.w3.org/2000/svg" xmlns:xlink="http://www.w3.org/1999/xlink"
  width="429px" height="91px" viewBox="-10 -10 330 70" version="1.1">
<![CDATA[
@w_hold 10
clock1 _~_~_~_~_~_~_~_~_~_~_~
@w_hold 22
clock2 ~_~_~_~_~_~
@w_hold 16
clock3 _~_~_~_~_~_~_~_
]]>
<g>
<text x="35" y="8.5" text-anchor="end" font-size="10" fill="black" font-family="Helvetica">clock1</text>
<path stroke-linecap="round" stroke-width="0.6" stroke="black" fill="none" d="M42,10H52M52,10L54,0M54,0H64M64,0L66,10M66,10H76M76,10L78,0M78,0H88M88,0L90,10M90,10H100M100,10L102,0M102,0H112M112,0L114,10M114,10H124M124,10L126,0M126,0H136M136,0L138,10M138,10H148M148,10L150,0M150,0H160M160,0L162,10M162,10H172M172,10L174,0M174,0H184M184,0L186,10M186,10H196M196,10L198,0M198,0H208M208,0L210,10M210,10H220M220,10L222,0M222,0H232M232,0L234,10M234,10H244M244,10L246,0M246,0H256M256,0L258,10M258,10H268M268,10L270,0M270,0H280M280,0L282,10M282,10H292M292,10L294,0M294,0H304" />

<text x="35" y="28.5" text-anchor="end" font-size="10" fill="black" font-family="Helvetica">clock2</text>
<path stroke-linecap="round" stroke-width="0.6" stroke="black" fill="none" d="M42,20H64M64,20L66,30M66,30H88M88,30L90,20M90,20H112M112,20L114,30M114,30H136M136,30L138,20M138,20H160M160,20L162,30M162,30H184M184,30L186,20M186,20H208M208,20L210,30M210,30H232M232,30L234,20M234,20H256M256,20L258,30M258,30H280M280,30L282,20M282,20H304" />

<text x="35" y="48.5" text-anchor="end" font-size="10" fill="black" font-family="Helvetica">clock3</text>
<path stroke-linecap="round" stroke-width="0.6" stroke="black" fill="none" d="M42,50H58M58,50L60,40M60,40H76M76,40L78,50M78,50H94M94,50L96,40M96,40H112M112,40L114,50M114,50H130M130,50L132,40M132,40H148M148,40L150,50M150,50H166M166,50L168,40M168,40H184M184,40L186,50M186,50H202M202,50L204,40M204,40H220M220,40L222,50M222,50H238M238,50L240,40M240,40H256M256,40L258,50M258,50H274M274,50L276,40M276,40H292M292,40L294,50M294,50H310" />

</g>
</svg>
