<svg xmlns="http://www.w3.org/2000/svg" xmlns:xlink="http://www.w3.org/1999/xlink"
  width="478.40000000000003px" height="91px" viewBox="-10 -10 368 70" version="1.1">
<![CDATA[
@w_transient 0
clock1 _~_~_~_~_~_~_~_~_~_~_~
@w_transient 2
clock2 _~_~_~_~_~_~_~_~_~_~_~
@w_transient 4
clock3 _~_~_~_~_~_~_~_~_~_~_~
]]>
<g>
<text x="35" y="8.5" text-anchor="end" font-size="10" fill="black" font-family="Helvetica">clock1</text>
<path stroke-linecap="round" stroke-width="0.6" stroke="black" fill="none" d="M40,10H50M50,10V0M50,0H60M60,0V10M60,10H70M70,10V0M70,0H80M80,0V10M80,10H90M90,10V0M90,0H100M100,0V10M100,10H110M110,10V0M110,0H120M120,0V10M120,10H130M130,10V0M130,0H140M140,0V10M140,10H150M150,10V0M150,0H160M160,0V10M160,10H170M170,10V0M170,0H180M180,0V10M180,10H190M190,10V0M190,0H200M200,0V10M200,10H210M210,10V0M210,0H220M220,0V10M220,10H230M230,10V0M230,0H240M240,0V10M240,10H250M250,10V0M250,0H260" />

<text x="35" y="28.5" text-anchor="end" font-size="10" fill="black" font-family="Helvetica">clock2</text>
<path stroke-linecap="round" stroke-width="0.6" stroke="black" fill="none" d="M42,30H52M52,30L54,20M54,20H64M64,20L66,30M66,30H76M76,30L78,20M78,20H88M88,20L90,30M90,30H100M100,30L102,20M102,20H112M112,20L114,30M114,30H124M124,30L126,20M126,20H136M136,20L138,30M138,30H148M148,30L150,20M150,20H160M160,20L162,30M162,30H172M172,30L174,20M174,20H184M184,20L186,30M186,30H196M196,30L198,20M198,20H208M208,20L210,30M210,30H220M220,30L222,20M222,20H232M232,20L234,30M234,30H244M244,30L246,20M246,20H256M256,20L258,30M258,30H268M268,30L270,20M270,20H280M280,20L282,30M282,30H292M292,30L294,20M294,20H304" />

<text x="35" y="48.5" text-anchor="end" font-size="10" fill="black" font-family="Helvetica">clock3</text>
<path stroke-linecap="round" stroke-width="0.6" stroke="black" fill="none" d="M44,50H54M54,50L58,40M58,40H68M68,40L72,50M72,50H82M82,50L86,40M86,40H96M96,40L100,50M100,50H110M110,50L114,40M114,40H124M124,40L128,50M128,50H138M138,50L142,40M142,40H152M152,40L156,50M156,50H166M166,50L170,40M170,40H180M180,40L184,50M184,50H194M194,50L198,40M198,40H208M208,40L212,50M212,50H222M222,50L226,40M226,40H236M236,40L240,50M240,50H250M250,50L254,40M254,40H264M264,40L268,50M268,50H278M278,50L282,40M282,40H292M292,40L296,50M296,50H306M306,50L310,40M310,40H320M320,40L324,50M324,50H334M334,50L338,40M338,40H348" />

</g>
</svg>
