<svg xmlns="http://www.w3.org/2000/svg" xmlns:xlink="http://www.w3.org/1999/xlink"
  width="423.8px" height="286px" viewBox="-10 -10 326 220" version="1.1">
<![CDATA[
@w_transient 4
# :-~_=/\X*
0 _~_~_~_~_~_~_[~_~_]~_

1 :::-:~:_:=:/:\:X:*:
2 -:---~-_-=-/-\-X-*-
3 ~:~-~~~_~=~/~\~X~*~
4 _:_-_~___=_/_\_X_*_
5 =:=-=|~=_===/=\=X=*=
6 /:/-/~/_/=///\/X/*/
7 \:\-\~\_\=\/\\\X\*\
8 X:X-X~X_X=X/X\XXX*X
9 *:*-*~*_*=*/*\*X***
]]>
<g>
<path d="M224,-5V205H280V-5Z" stroke="none" fill="#ff8" />
<text x="35" y="8.5" text-anchor="end" font-size="10" fill="black" font-family="Helvetica">0</text>
<path stroke-linecap="round" stroke-width="0.6" stroke="black" fill="none" d="M44,10H54M54,10L58,0M58,0H68M68,0L72,10M72,10H82M82,10L86,0M86,0H96M96,0L100,10M100,10H110M110,10L114,0M114,0H124M124,0L128,10M128,10H138M138,10L142,0M142,0H152M152,0L156,10M156,10H166M166,10L170,0M170,0H180M180,0L184,10M184,10H194M194,10L198,0M198,0H208M208,0L212,10M212,10H222M222,10L226,0M226,0H236M236,0L240,10M240,10H250M250,10L254,0M254,0H264M264,0L268,10M268,10H278M278,10L282,0M282,0H292M292,0L296,10M296,10H306" />

<text x="35" y="38.5" text-anchor="end" font-size="10" fill="black" font-family="Helvetica">1</text>
<path stroke-linecap="round" stroke-width="0.6" stroke="black" fill="none" d="M86,35H96M114,30H124M142,40H152M170,40H180M170,30H180M198,40H208M198,30H208M226,40H236M226,30H236M254,40H264M254,30H264M282,40H292M282,30H292" />

<text x="35" y="58.5" text-anchor="end" font-size="10" fill="black" font-family="Helvetica">2</text>
<path stroke-linecap="round" stroke-width="0.6" stroke="black" fill="none" d="M44,55H54M72,55H82M82,55H86M86,55H96M96,55H100M100,55H110M110,55L114,50M114,50H124M124,50L128,55M128,55H138M138,55L142,60M142,60H152M152,60L156,55M156,55H166M166,55L170,50M166,55L170,60M170,60H180M170,50H180M180,50L184,55M180,60L184,55M184,55H194M194,55L198,50M194,55L198,60M198,60H208M198,50H208M208,50L212,55M208,60L212,55M212,55H222M222,55L226,50M222,55L226,60M226,60H236M226,50H236M236,50L240,55M236,60L240,55M240,55H250M250,55L254,50M250,55L254,60M254,60H264M254,50H264M264,50L268,55M264,60L268,55M268,55H278M278,55L282,50M278,55L282,60M282,60H292M282,50H292M292,50L296,55M292,60L296,55M296,55H306" />

<text x="35" y="78.5" text-anchor="end" font-size="10" fill="black" font-family="Helvetica">3</text>
<path stroke-linecap="round" stroke-width="0.6" stroke="black" fill="none" d="M44,70H54M72,70H82M82,70L86,75M86,75H96M96,75L100,70M100,70H110M110,70H114M114,70H124M124,70H128M128,70H138M138,70L142,80M142,80H152M152,80L156,70M156,70H166M166,70L170,80M166,70H170M170,80H180M170,70H180M180,70H184M180,80L184,70M184,70H194M194,70L198,80M194,70H198M198,80H208M198,70H208M208,70H212M208,80L212,70M212,70H222M222,70L226,80M222,70H226M226,80H236M226,70H236M236,70H240M236,80L240,70M240,70H250M250,70L254,80M250,70H254M254,80H264M254,70H264M264,70H268M264,80L268,70M268,70H278M278,70L282,80M278,70H282M282,80H292M282,70H292M292,70H296M292,80L296,70M296,70H306" />

<text x="35" y="98.5" text-anchor="end" font-size="10" fill="black" font-family="Helvetica">4</text>
<path stroke-linecap="round" stroke-width="0.6" stroke="black" fill="none" d="M44,100H54M72,100H82M82,100L86,95M86,95H96M96,95L100,100M100,100H110M110,100L114,90M114,90H124M124,90L128,100M128,100H138M138,100H142M142,100H152M152,100H156M156,100H166M166,100L170,90M166,100H170M170,100H180M170,90H180M180,100H184M180,90L184,100M184,100H194M194,100L198,90M194,100H198M198,100H208M198,90H208M208,100H212M208,90L212,100M212,100H222M222,100L226,90M222,100H226M226,100H236M226,90H236M236,100H240M236,90L240,100M240,100H250M250,100L254,90M250,100H254M254,100H264M254,90H264M264,100H268M264,90L268,100M268,100H278M278,100L282,90M278,100H282M282,100H292M282,90H292M292,100H296M292,90L296,100M296,100H306" />

<text x="35" y="118.5" text-anchor="end" font-size="10" fill="black" font-family="Helvetica">5</text>
<path stroke-linecap="round" stroke-width="0.6" stroke="black" fill="none" d="M44,120H54M44,110H54M72,120H82M72,110H82M82,110L86,115M82,120L86,115M86,115H96M96,115L100,110M96,115L100,120M100,120H110M100,110H110M110,110H114M110,120L114,110M114,110H124M124,110L128,120M124,110H128M128,120H138M128,110H138M138,120H142M138,110L142,120M142,120H152M152,120L156,110M152,120H156M156,120H166M156,110H166M166,110H170M166,120H170M170,120H180M170,110H180M180,110H184M180,120H184M184,120H194M184,110H194M194,110H198M194,120H198M194,120L198,110M198,120H208M198,110H208M208,110H212M208,120H212M212,120H222M212,110H222M222,110H226M222,120H226M222,110L226,120M226,120H236M226,110H236M236,110H240M236,120H240M240,120H250M240,110H250M250,110L254,120M250,120L254,110M254,120H264M254,110H264M264,110H268M264,120H268M268,120H278M268,110H278M278,110H282M278,120H282M278,110L282,120M278,120L282,110M282,120H292M282,110H292M292,110H296M292,120H296M296,120H306M296,110H306" />

<text x="35" y="138.5" text-anchor="end" font-size="10" fill="black" font-family="Helvetica">6</text>
<path stroke-linecap="round" stroke-width="0.6" stroke="black" fill="none" d="M44,140H54M44,130H54M72,140H82M72,130H82M82,130L86,135M82,140L86,135M86,135H96M96,135L100,130M96,135L100,140M100,140H110M100,130H110M110,130H114M110,140L114,130M114,130H124M124,130L128,140M124,130H128M128,140H138M128,130H138M138,140H142M138,130L142,140M142,140H152M152,140L156,130M152,140H156M156,140H166M156,130H166M166,130H170M166,140H170M170,140H180M170,130H180M180,130H184M180,140H184M180,140L184,130M184,140H194M184,130H194M194,130H198M194,140H198M194,140L198,130M198,140H208M198,130H208M208,130H212M208,140H212M208,140L212,130M212,140H222M212,130H222M222,130H226M222,140H226M222,130L226,140M226,140H236M226,130H236M236,130H240M236,140H240M236,140L240,130M240,140H250M240,130H250M250,130L254,140M250,140L254,130M254,140H264M254,130H264M264,130H268M264,140H268M264,140L268,130M268,140H278M268,130H278M278,130H282M278,140H282M278,130L282,140M278,140L282,130M282,140H292M282,130H292M292,130H296M292,140H296M292,140L296,130M296,140H306M296,130H306" />

<text x="35" y="158.5" text-anchor="end" font-size="10" fill="black" font-family="Helvetica">7</text>
<path stroke-linecap="round" stroke-width="0.6" stroke="black" fill="none" d="M44,160H54M44,150H54M72,160H82M72,150H82M82,150L86,155M82,160L86,155M86,155H96M96,155L100,150M96,155L100,160M100,160H110M100,150H110M110,150H114M110,160L114,150M114,150H124M124,150L128,160M124,150H128M128,160H138M128,150H138M138,160H142M138,150L142,160M142,160H152M152,160L156,150M152,160H156M156,160H166M156,150H166M166,150H170M166,160H170M170,160H180M170,150H180M180,150H184M180,160H184M180,150L184,160M184,160H194M184,150H194M194,150H198M194,160H198M194,160L198,150M198,160H208M198,150H208M208,150H212M208,160H212M208,150L212,160M212,160H222M212,150H222M222,150H226M222,160H226M222,150L226,160M226,160H236M226,150H236M236,150H240M236,160H240M236,150L240,160M240,160H250M240,150H250M250,150L254,160M250,160L254,150M254,160H264M254,150H264M264,150H268M264,160H268M264,150L268,160M268,160H278M268,150H278M278,150H282M278,160H282M278,150L282,160M278,160L282,150M282,160H292M282,150H292M292,150H296M292,160H296M292,150L296,160M296,160H306M296,150H306" />

<text x="35" y="178.5" text-anchor="end" font-size="10" fill="black" font-family="Helvetica">8</text>
<path stroke-linecap="round" stroke-width="0.6" stroke="black" fill="none" d="M44,180H54M44,170H54M72,180H82M72,170H82M82,170L86,175M82,180L86,175M86,175H96M96,175L100,170M96,175L100,180M100,180H110M100,170H110M110,170H114M110,180L114,170M114,170H124M124,170L128,180M124,170H128M128,180H138M128,170H138M138,180H142M138,170L142,180M142,180H152M152,180L156,170M152,180H156M156,180H166M156,170H166M166,170H170M166,180H170M170,180H180M170,170H180M180,170L184,180M180,180L184,170M184,180H194M184,170H194M194,170H198M194,180H198M194,180L198,170M198,180H208M198,170H208M208,170L212,180M208,180L212,170M212,180H222M212,170H222M222,170H226M222,180H226M222,170L226,180M226,180H236M226,170H236M236,170L240,180M236,180L240,170M240,180H250M240,170H250M250,170L254,180M250,180L254,170M254,180H264M254,170H264M264,170L268,180M264,180L268,170M268,180H278M268,170H278M278,170H282M278,180H282M278,170L282,180M278,180L282,170M282,180H292M282,170H292M292,170L296,180M292,180L296,170M296,180H306M296,170H306" />

<text x="35" y="198.5" text-anchor="end" font-size="10" fill="black" font-family="Helvetica">9</text>
<path stroke-linecap="round" stroke-width="0.6" stroke="black" fill="none" d="M44,200H54M44,190H54M72,200H82M72,190H82M82,190L86,195M82,200L86,195M86,195H96M96,195L100,190M96,195L100,200M100,200H110M100,190H110M110,190H114M110,200L114,190M114,190H124M124,190L128,200M124,190H128M128,200H138M128,190H138M138,200H142M138,190L142,200M142,200H152M152,200L156,190M152,200H156M156,200H166M156,190H166M166,190H170M166,200H170M170,200H180M170,190H180M180,190H184M180,200H184M180,190L184,200M180,200L184,190M184,200H194M184,190H194M194,190H198M194,200H198M194,200L198,190M198,200H208M198,190H208M208,190H212M208,200H212M208,190L212,200M208,200L212,190M212,200H222M212,190H222M222,190H226M222,200H226M222,190L226,200M226,200H236M226,190H236M236,190H240M236,200H240M236,190L240,200M236,200L240,190M240,200H250M240,190H250M250,190L254,200M250,200L254,190M254,200H264M254,190H264M264,190H268M264,200H268M264,190L268,200M264,200L268,190M268,200H278M268,190H278M278,190H282M278,200H282M278,190L282,200M278,200L282,190M282,200H292M282,190H292M292,190H296M292,200H296M292,190L296,200M292,200L296,190M296,200H306M296,190H306" />

<path d="M112,-5V205" stroke-width="0.6" stroke="red" />
</g>
</svg>
