<svg xmlns="http://www.w3.org/2000/svg" xmlns:xlink="http://www.w3.org/1999/xlink"
  width="234px" height="65px" viewBox="-10 -10 180 50" version="1.1">
<![CDATA[
clk  _~_~_~_~_~
data =X=X=X=X=X
]]>
<g>
<text x="35" y="8.5" text-anchor="end" font-size="10" fill="black" font-family="Helvetica">clk</text>
<path stroke-linecap="round" stroke-width="0.6" stroke="black" fill="none" d="M42,10H52M52,10L54,0M54,0H64M64,0L66,10M66,10H76M76,10L78,0M78,0H88M88,0L90,10M90,10H100M100,10L102,0M102,0H112M112,0L114,10M114,10H124M124,10L126,0M126,0H136M136,0L138,10M138,10H148M148,10L150,0M150,0H160" />

<text x="35" y="28.5" text-anchor="end" font-size="10" fill="black" font-family="Helvetica">data</text>
<path stroke-linecap="round" stroke-width="0.6" stroke="black" fill="none" d="M42,30H52M42,20H52M52,20L54,30M52,30L54,20M54,30H64M54,20H64M64,20H66M64,30H66M66,30H76M66,20H76M76,20L78,30M76,30L78,20M78,30H88M78,20H88M88,20H90M88,30H90M90,30H100M90,20H100M100,20L102,30M100,30L102,20M102,30H112M102,20H112M112,20H114M112,30H114M114,30H124M114,20H124M124,20L126,30M124,30L126,20M126,30H136M126,20H136M136,20H138M136,30H138M138,30H148M138,20H148M148,20L150,30M148,30L150,20M150,30H160M150,20H160" />

</g>
</svg>
