<svg xmlns="http://www.w3.org/2000/svg" xmlns:xlink="http://www.w3.org/1999/xlink"
  width="234px" height="104px" viewBox="-10 -10 180 80" version="1.1">
<![CDATA[
clk1   _~_~_~_~_~
clk2   __~~__~~__

signal ___~~_____
]]>
<g>
<text x="35" y="8.5" text-anchor="end" font-size="10" fill="black" font-family="Helvetica">clk1</text>
<path stroke-linecap="round" stroke-width="0.6" stroke="black" fill="none" d="M42,10H52M52,10L54,0M54,0H64M64,0L66,10M66,10H76M76,10L78,0M78,0H88M88,0L90,10M90,10H100M100,10L102,0M102,0H112M112,0L114,10M114,10H124M124,10L126,0M126,0H136M136,0L138,10M138,10H148M148,10L150,0M150,0H160" />

<text x="35" y="28.5" text-anchor="end" font-size="10" fill="black" font-family="Helvetica">clk2</text>
<path stroke-linecap="round" stroke-width="0.6" stroke="black" fill="none" d="M42,30H52M52,30H54M54,30H64M64,30L66,20M66,20H76M76,20H78M78,20H88M88,20L90,30M90,30H100M100,30H102M102,30H112M112,30L114,20M114,20H124M124,20H126M126,20H136M136,20L138,30M138,30H148M148,30H150M150,30H160" />

<text x="35" y="58.5" text-anchor="end" font-size="10" fill="black" font-family="Helvetica">signal</text>
<path stroke-linecap="round" stroke-width="0.6" stroke="black" fill="none" d="M42,60H52M52,60H54M54,60H64M64,60H66M66,60H76M76,60L78,50M78,50H88M88,50H90M90,50H100M100,50L102,60M102,60H112M112,60H114M114,60H124M124,60H126M126,60H136M136,60H138M138,60H148M148,60H150M150,60H160" />

</g>
</svg>
