<svg xmlns="http://www.w3.org/2000/svg" xmlns:xlink="http://www.w3.org/1999/xlink"
  width="296.40000000000003px" height="65px" viewBox="-10 -10 228 50" version="1.1">
<![CDATA[
clk _~_~_~_~_~_~_~
data ---|===<D1>=X=<D2>==|---
]]>
<g>
<text x="35" y="8.5" text-anchor="end" font-size="10" fill="black" font-family="Helvetica">clk</text>
<path stroke-linecap="round" stroke-width="0.6" stroke="black" fill="none" d="M42,10H52M52,10L54,0M54,0H64M64,0L66,10M66,10H76M76,10L78,0M78,0H88M88,0L90,10M90,10H100M100,10L102,0M102,0H112M112,0L114,10M114,10H124M124,10L126,0M126,0H136M136,0L138,10M138,10H148M148,10L150,0M150,0H160M160,0L162,10M162,10H172M172,10L174,0M174,0H184M184,0L186,10M186,10H196M196,10L198,0M198,0H208" />

<text x="35" y="28.5" text-anchor="end" font-size="10" fill="black" font-family="Helvetica">data</text>
<text x="101" y="28.5" text-anchor="middle" font-size="10" fill="black" font-family="Helvetica">&lt;D1&gt;</text>
<text x="149" y="28.5" text-anchor="middle" font-size="10" fill="black" font-family="Helvetica">&lt;D2&gt;</text>
<path stroke-linecap="round" stroke-width="0.6" stroke="black" fill="none" d="M42,25H52M52,25H54M54,25H64M64,25H66M66,25H76M76,25L78,20M76,25L78,30M78,30H88M78,20H88M88,20H90M88,30H90M90,30H100M90,20H100M100,20H102M100,30H102M102,30H112M102,20H112M112,20H114M112,30H114M114,30H124M114,20H124M124,20L126,30M124,30L126,20M126,30H136M126,20H136M136,20H138M136,30H138M138,30H148M138,20H148M148,20H150M148,30H150M150,30H160M150,20H160M160,20H162M160,30H162M162,30H172M162,20H172M172,20L174,25M172,30L174,25M174,25H184M184,25H186M186,25H196M196,25H198M198,25H208" />

<path d="M77,-5V35" stroke-width="0.6" stroke="red" />
<path d="M173,-5V35" stroke-width="0.6" stroke="red" />
</g>
</svg>
