<svg xmlns="http://www.w3.org/2000/svg" xmlns:xlink="http://www.w3.org/1999/xlink"
  width="358.8px" height="117px" viewBox="-10 -10 276 90" version="1.1">
<![CDATA[
clk    _~_~_~_~_~_~_~_~_~
data   ___~~~~~~~~|____~~_
enable ___[~~~~~~~~~~]_____
output ---~~~~~~~~__-----
]]>
<g>
<path d="M77,-5V75H197V-5Z" stroke="none" fill="#ff8" />
<text x="35" y="8.5" text-anchor="end" font-size="10" fill="black" font-family="Helvetica">clk</text>
<path stroke-linecap="round" stroke-width="0.6" stroke="black" fill="none" d="M42,10H52M52,10L54,0M54,0H64M64,0L66,10M66,10H76M76,10L78,0M78,0H88M88,0L90,10M90,10H100M100,10L102,0M102,0H112M112,0L114,10M114,10H124M124,10L126,0M126,0H136M136,0L138,10M138,10H148M148,10L150,0M150,0H160M160,0L162,10M162,10H172M172,10L174,0M174,0H184M184,0L186,10M186,10H196M196,10L198,0M198,0H208M208,0L210,10M210,10H220M220,10L222,0M222,0H232M232,0L234,10M234,10H244M244,10L246,0M246,0H256" />

<text x="35" y="28.5" text-anchor="end" font-size="10" fill="black" font-family="Helvetica">data</text>
<path stroke-linecap="round" stroke-width="0.6" stroke="black" fill="none" d="M42,30H52M52,30H54M54,30H64M64,30H66M66,30H76M76,30L78,20M78,20H88M88,20H90M90,20H100M100,20H102M102,20H112M112,20H114M114,20H124M124,20H126M126,20H136M136,20H138M138,20H148M148,20H150M150,20H160M160,20H162M162,20H172M172,20L174,30M174,30H184M184,30H186M186,30H196M196,30H198M198,30H208M208,30H210M210,30H220M220,30L222,20M222,20H232M232,20H234M234,20H244M244,20L246,30M246,30H256" />

<text x="35" y="48.5" text-anchor="end" font-size="10" fill="black" font-family="Helvetica">enable</text>
<path stroke-linecap="round" stroke-width="0.6" stroke="black" fill="none" d="M42,50H52M52,50H54M54,50H64M64,50H66M66,50H76M76,50L78,40M78,40H88M88,40H90M90,40H100M100,40H102M102,40H112M112,40H114M114,40H124M124,40H126M126,40H136M136,40H138M138,40H148M148,40H150M150,40H160M160,40H162M162,40H172M172,40H174M174,40H184M184,40H186M186,40H196M196,40L198,50M198,50H208M208,50H210M210,50H220M220,50H222M222,50H232M232,50H234M234,50H244M244,50H246M246,50H256" />

<text x="35" y="68.5" text-anchor="end" font-size="10" fill="black" font-family="Helvetica">output</text>
<path stroke-linecap="round" stroke-width="0.6" stroke="black" fill="none" d="M42,65H52M52,65H54M54,65H64M64,65H66M66,65H76M76,65L78,60M78,60H88M88,60H90M90,60H100M100,60H102M102,60H112M112,60H114M114,60H124M124,60H126M126,60H136M136,60H138M138,60H148M148,60H150M150,60H160M160,60H162M162,60H172M172,60L174,70M174,70H184M184,70H186M186,70H196M196,70L198,65M198,65H208M208,65H210M210,65H220M220,65H222M222,65H232M232,65H234M234,65H244M244,65H246M246,65H256" />

<path d="M173,-5V75" stroke-width="0.6" stroke="red" />
</g>
</svg>
