<svg xmlns="http://www.w3.org/2000/svg" xmlns:xlink="http://www.w3.org/1999/xlink"
  width="332.8px" height="117px" viewBox="-10 -10 256 90" version="1.1">
<![CDATA[
@w_transient 4
clk        _~_~_~_~_~_~_~
rising     ___==/=/=~~~~~
falling    ~~~==\=\=_____
transition ___=D0=*=D1*=D2*=D3___
]]>
<g>
<text x="35" y="8.5" text-anchor="end" font-size="10" fill="black" font-family="Helvetica">clk</text>
<path stroke-linecap="round" stroke-width="0.6" stroke="black" fill="none" d="M44,10H54M54,10L58,0M58,0H68M68,0L72,10M72,10H82M82,10L86,0M86,0H96M96,0L100,10M100,10H110M110,10L114,0M114,0H124M124,0L128,10M128,10H138M138,10L142,0M142,0H152M152,0L156,10M156,10H166M166,10L170,0M170,0H180M180,0L184,10M184,10H194M194,10L198,0M198,0H208M208,0L212,10M212,10H222M222,10L226,0M226,0H236" />

<text x="35" y="28.5" text-anchor="end" font-size="10" fill="black" font-family="Helvetica">rising</text>
<path stroke-linecap="round" stroke-width="0.6" stroke="black" fill="none" d="M44,30H54M54,30H58M58,30H68M68,30H72M72,30H82M82,30L86,20M82,30H86M86,30H96M86,20H96M96,20H100M96,30H100M100,30H110M100,20H110M110,20H114M110,30H114M110,30L114,20M114,30H124M114,20H124M124,20H128M124,30H128M128,30H138M128,20H138M138,20H142M138,30H142M138,30L142,20M142,30H152M142,20H152M152,20H156M152,30H156M156,30H166M156,20H166M166,20H170M166,30L170,20M170,20H180M180,20H184M184,20H194M194,20H198M198,20H208M208,20H212M212,20H222M222,20H226M226,20H236" />

<text x="35" y="48.5" text-anchor="end" font-size="10" fill="black" font-family="Helvetica">falling</text>
<path stroke-linecap="round" stroke-width="0.6" stroke="black" fill="none" d="M44,40H54M54,40H58M58,40H68M68,40H72M72,40H82M82,40L86,50M82,40H86M86,50H96M86,40H96M96,40H100M96,50H100M100,50H110M100,40H110M110,40H114M110,50H114M110,40L114,50M114,50H124M114,40H124M124,40H128M124,50H128M128,50H138M128,40H138M138,40H142M138,50H142M138,40L142,50M142,50H152M142,40H152M152,40H156M152,50H156M156,50H166M156,40H166M166,50H170M166,40L170,50M170,50H180M180,50H184M184,50H194M194,50H198M198,50H208M208,50H212M212,50H222M222,50H226M226,50H236" />

<text x="35" y="68.5" text-anchor="end" font-size="10" fill="black" font-family="Helvetica">transition</text>
<text x="98" y="68.5" text-anchor="middle" font-size="10" fill="black" font-family="Helvetica">D0</text>
<text x="126" y="68.5" text-anchor="middle" font-size="10" fill="black" font-family="Helvetica">D1</text>
<text x="154" y="68.5" text-anchor="middle" font-size="10" fill="black" font-family="Helvetica">D2</text>
<text x="182" y="68.5" text-anchor="middle" font-size="10" fill="black" font-family="Helvetica">D3</text>
<path stroke-linecap="round" stroke-width="0.6" stroke="black" fill="none" d="M44,70H54M54,70H58M58,70H68M68,70H72M72,70H82M82,70L86,60M82,70H86M86,70H96M86,60H96M96,60H100M96,70H100M100,70H110M100,60H110M110,60H114M110,70H114M110,60L114,70M110,70L114,60M114,70H124M114,60H124M124,60H128M124,70H128M128,70H138M128,60H138M138,60H142M138,70H142M138,60L142,70M138,70L142,60M142,70H152M142,60H152M152,60H156M152,70H156M156,70H166M156,60H166M166,60H170M166,70H170M166,60L170,70M166,70L170,60M170,70H180M170,60H180M180,60H184M180,70H184M184,70H194M184,60H194M194,70H198M194,60L198,70M198,70H208M208,70H212M212,70H222M222,70H226M226,70H236" />

</g>
</svg>
